<svg
        width="86.25"
        height="30.63"
        viewBox="0 0 86.25 30.63"
        xmlns="http://www.w3.org/2000/svg"
        style="margin-top: 2px"
>
    <g
            id="svgGroup"
            stroke-linecap="round"
            fill-rule="nonzero"
            font-size="9pt"
            stroke="#5898ff"
            stroke-width="0.5mm"
            fill="#3984f4"
            style="stroke: #5898ff; stroke-width: 0.5mm; fill: #3984f4"
    >
        <path
                d="M 0 1.582 L 0 0.337 L 7.954 0.337 L 7.954 1.582 L 5.42 1.919 L 10.752 11.66 L 15.322 1.919 L 12.905 1.582 L 12.905 0.337 L 19.702 0.337 L 19.702 1.582 L 17.446 1.86 L 11.675 13.447 L 11.675 20.845 L 14.224 21.182 L 14.224 22.427 L 6.445 22.427 L 6.445 21.182 L 8.95 20.845 L 8.95 13.462 L 2.007 1.919 L 0 1.582 Z M 40.21 11.045 L 40.21 20.874 L 42.07 21.211 L 42.07 22.427 L 35.918 22.427 L 35.918 21.211 L 37.822 20.874 L 37.822 10.21 L 35.918 9.873 L 35.918 8.657 L 39.961 7.588 L 39.961 9.492 Q 42.92 7.588 45.454 7.588 A 5.569 5.569 0 0 1 46.962 7.777 Q 48.697 8.265 49.381 10.008 A 4.978 4.978 0 0 1 49.424 10.122 A 4.906 4.906 0 0 1 49.655 11.045 Q 49.731 11.543 49.731 12.114 L 49.731 20.874 L 51.592 21.211 L 51.592 22.427 L 45.454 22.427 L 45.454 21.211 L 47.344 20.874 L 47.344 12.393 A 4.623 4.623 0 0 0 47.222 11.28 Q 46.861 9.828 45.428 9.556 A 3.857 3.857 0 0 0 44.707 9.492 A 7.014 7.014 0 0 0 41.97 10.069 A 9.845 9.845 0 0 0 40.21 11.045 Z M 84.038 1.919 L 84.038 21.123 A 15.546 15.546 0 0 1 83.858 23.56 Q 83.643 24.912 83.172 26.019 A 8.06 8.06 0 0 1 82.515 27.261 A 19.672 19.672 0 0 1 82.064 27.91 Q 81.579 28.577 81.184 28.976 A 3.961 3.961 0 0 1 80.925 29.216 A 15.132 15.132 0 0 1 80.537 29.533 Q 80.138 29.848 79.829 30.038 A 4.56 4.56 0 0 1 79.819 30.044 A 6.111 6.111 0 0 1 79.292 30.327 Q 78.718 30.597 78.271 30.626 A 1.637 1.637 0 0 1 78.164 30.63 Q 76.333 30.63 75.146 29.707 L 76.069 26.821 L 77.021 26.821 Q 77.021 27.656 77.798 28.081 Q 78.057 28.211 78.436 28.236 A 2.851 2.851 0 0 0 78.625 28.242 A 2.167 2.167 0 0 0 79.539 28.037 A 2.537 2.537 0 0 0 79.614 28.001 A 2.236 2.236 0 0 0 80.236 27.534 A 2.825 2.825 0 0 0 80.464 27.261 Q 81.145 26.34 81.271 24.854 A 8.321 8.321 0 0 0 81.299 24.155 L 81.299 1.919 L 79.072 1.582 L 79.072 0.337 L 86.25 0.337 L 86.25 1.582 L 84.038 1.919 Z M 56.418 19.585 A 9.384 9.384 0 0 0 57.491 20.538 A 10.632 10.632 0 0 0 59.934 21.914 A 11.104 11.104 0 0 0 61.274 22.362 A 12.435 12.435 0 0 0 64.475 22.764 A 13.234 13.234 0 0 0 65.963 22.682 A 10.658 10.658 0 0 0 68.914 21.929 Q 70.898 21.094 72.393 19.541 A 11.157 11.157 0 0 0 75.096 14.848 A 14.342 14.342 0 0 0 75.63 10.84 A 13.944 13.944 0 0 0 75.466 8.662 A 9.937 9.937 0 0 0 72.744 3.106 Q 71.323 1.655 69.243 0.828 A 9.771 9.771 0 0 0 68.947 0.715 Q 67.897 0.337 66.667 0.159 A 16.275 16.275 0 0 0 64.336 0 A 10.397 10.397 0 0 0 59.033 1.436 A 10.659 10.659 0 0 0 56.799 3.164 Q 55.781 4.19 55.056 5.493 A 11.149 11.149 0 0 0 54.673 6.249 A 12.701 12.701 0 0 0 53.921 8.379 Q 53.69 9.269 53.589 10.309 A 17.73 17.73 0 0 0 53.511 12.019 A 11.733 11.733 0 0 0 54.25 16.091 Q 54.99 18.106 56.418 19.585 Z M 58.564 4.468 A 8.839 8.839 0 0 0 57.01 7.112 A 10.122 10.122 0 0 0 56.917 7.368 A 10.332 10.332 0 0 0 56.407 9.503 A 8.921 8.921 0 0 0 56.338 10.606 A 18.34 18.34 0 0 0 56.395 12.085 A 13.357 13.357 0 0 0 56.572 13.447 A 12.057 12.057 0 0 0 57.211 15.687 A 11.21 11.21 0 0 0 57.268 15.828 Q 57.729 16.948 58.425 17.901 A 7.701 7.701 0 0 0 60.044 19.541 A 7.383 7.383 0 0 0 64.078 20.987 A 9.292 9.292 0 0 0 64.673 21.006 A 8.76 8.76 0 0 0 67.508 20.565 A 7.411 7.411 0 0 0 70.605 18.53 Q 72.847 16.099 72.847 12.188 Q 72.847 8.043 71.042 5.241 A 9.872 9.872 0 0 0 70.898 5.025 A 7.149 7.149 0 0 0 65.689 1.839 A 10.048 10.048 0 0 0 64.395 1.758 A 7.461 7.461 0 0 0 60.857 2.592 A 7.758 7.758 0 0 0 58.564 4.468 Z M 34.512 20.288 L 34.775 21.665 A 20.956 20.956 0 0 1 33.838 22.12 Q 32.414 22.764 31.685 22.764 Q 29.546 22.764 29.546 20.947 L 29.546 20.493 A 1.093 1.093 0 0 1 29.411 20.653 Q 29.173 20.891 28.645 21.243 A 13.919 13.919 0 0 1 28.425 21.387 A 24.77 24.77 0 0 1 27.993 21.658 Q 27.382 22.031 26.997 22.207 Q 26.052 22.64 25.461 22.736 A 1.938 1.938 0 0 1 25.151 22.764 Q 24.521 22.764 24.111 22.713 A 4.195 4.195 0 0 1 23.534 22.597 A 4.996 4.996 0 0 1 23.262 22.515 A 4.018 4.018 0 0 1 22.531 22.184 A 4.555 4.555 0 0 1 22.397 22.105 A 2.915 2.915 0 0 1 21.743 21.545 A 3.376 3.376 0 0 1 21.636 21.416 A 3.304 3.304 0 0 1 21.012 20.101 Q 20.889 19.583 20.889 18.97 A 4.538 4.538 0 0 1 21.012 17.873 A 2.718 2.718 0 0 1 22.368 16.069 A 5.238 5.238 0 0 1 24.353 15.396 A 55.061 55.061 0 0 1 25.355 15.278 A 41.03 41.03 0 0 1 26.265 15.191 Q 27.905 15.044 29.546 15.015 L 29.546 11.939 Q 29.546 10.664 29.224 10.239 A 1.741 1.741 0 0 0 28.165 9.558 A 2.79 2.79 0 0 0 27.539 9.492 A 8.28 8.28 0 0 0 23.998 10.311 A 10.956 10.956 0 0 0 22.529 11.148 L 21.68 9.873 Q 25.107 7.588 27.817 7.588 Q 30.176 7.588 31.157 8.892 A 3.39 3.39 0 0 1 31.678 9.938 Q 31.919 10.716 31.919 11.763 L 31.919 19.468 A 4.449 4.449 0 0 0 31.933 19.841 Q 31.987 20.474 32.24 20.652 A 0.373 0.373 0 0 0 32.329 20.698 Q 32.476 20.742 32.71 20.742 A 2.278 2.278 0 0 0 33.066 20.71 Q 33.442 20.65 33.975 20.477 A 13.301 13.301 0 0 0 34.512 20.288 Z M 29.546 19.146 L 29.546 16.245 A 43.226 43.226 0 0 0 27.869 16.34 Q 25.129 16.554 24.214 17.08 A 1.681 1.681 0 0 0 23.359 18.289 A 2.48 2.48 0 0 0 23.32 18.735 A 3.246 3.246 0 0 0 23.397 19.473 Q 23.503 19.923 23.752 20.23 A 1.667 1.667 0 0 0 24.595 20.772 Q 24.883 20.856 25.274 20.871 A 4.584 4.584 0 0 0 25.452 20.874 A 3.059 3.059 0 0 0 25.89 20.84 Q 26.114 20.808 26.363 20.744 A 6.12 6.12 0 0 0 26.631 20.669 A 7.808 7.808 0 0 0 27.565 20.32 A 6.814 6.814 0 0 0 27.876 20.171 Q 28.96 19.644 29.546 19.146 Z"
                vector-effect="non-scaling-stroke"
        />
    </g>
</svg>