<svg width="173.6" height="42.6" viewBox="0 0 173.6 42.6" xmlns="http://www.w3.org/2000/svg"><g id="svgGroup" stroke-linecap="round" fill-rule="evenodd" font-size="9pt" stroke="#611860" stroke-width="0.25mm" fill="#ad2e2e" style="stroke:#611860;stroke-width:0.25mm;fill:#ad2e2e"><path d="M 157.25 42.6 L 155.55 40.45 Q 157.9 38.15 159.225 35.975 Q 160.55 33.8 161.125 31.125 A 27.029 27.029 0 0 0 161.526 28.686 Q 161.742 26.889 161.8 24.75 A 211.112 211.112 0 0 0 161.919 20.156 Q 161.97 16.722 161.89 13.678 A 126.59 126.59 0 0 0 161.85 12.4 Q 161.697 8.189 161.602 5.356 A 1004.725 1004.725 0 0 1 161.55 3.75 L 156.75 2.45 L 157.25 0.5 Q 158.4 0.55 159.525 0.6 A 81.128 81.128 0 0 0 160.699 0.643 Q 161.319 0.662 162.006 0.674 A 135.849 135.849 0 0 0 162.05 0.675 A 137.372 137.372 0 0 0 163.191 0.69 Q 164.219 0.7 165.5 0.7 A 194.96 194.96 0 0 0 166.892 0.696 Q 168.242 0.686 169.24 0.656 A 51.014 51.014 0 0 0 170.075 0.625 Q 171.7 0.55 173 0.5 L 173.6 2.45 L 169.15 3.75 A 651.406 651.406 0 0 0 169.156 6.569 A 751.534 751.534 0 0 0 169.175 9.525 Q 169.2 12.55 169.2 16.2 Q 169.2 19.337 169.126 23.323 A 576.142 576.142 0 0 1 169.1 24.65 A 26.055 26.055 0 0 1 168.824 27.967 A 22.741 22.741 0 0 1 168.625 29.1 A 13.154 13.154 0 0 1 167.614 32.106 A 15.799 15.799 0 0 1 167 33.275 Q 165.992 35.017 164.192 36.901 A 30.636 30.636 0 0 1 163.475 37.625 A 33.659 33.659 0 0 1 161.51 39.391 Q 160.428 40.295 159.129 41.257 A 72.514 72.514 0 0 1 157.25 42.6 Z M 140.972 0.339 A 18 18 0 0 0 137.4 0 Q 132.05 0 128.525 2.275 Q 125 4.55 123.275 8.325 A 18.461 18.461 0 0 0 122.365 10.755 A 20.469 20.469 0 0 0 121.55 16.6 Q 121.55 20.05 122.55 23.175 Q 123.55 26.3 125.55 28.725 A 13.736 13.736 0 0 0 126.474 29.738 A 14.596 14.596 0 0 0 130.575 32.575 A 14.42 14.42 0 0 0 134.064 33.687 A 19.073 19.073 0 0 0 137.6 34 A 19.437 19.437 0 0 0 140.904 33.732 A 14.28 14.28 0 0 0 144.575 32.6 A 15.425 15.425 0 0 0 144.668 32.556 A 13.328 13.328 0 0 0 149.475 28.75 Q 151.4 26.3 152.35 23.2 A 20.881 20.881 0 0 0 152.573 22.42 A 22.48 22.48 0 0 0 153.3 16.65 Q 153.3 13.5 152.25 10.525 Q 151.2 7.55 149.175 5.175 Q 147.15 2.8 144.2 1.4 A 13.945 13.945 0 0 0 140.972 0.339 Z M 84.05 30.6 L 87.8 31.65 L 87 33.5 A 40.025 40.025 0 0 0 85.704 33.423 Q 84.927 33.389 84.05 33.375 Q 82.4 33.35 80.8 33.35 Q 78.979 33.35 77.508 33.394 A 78.503 78.503 0 0 0 77.3 33.4 Q 75.75 33.45 74.45 33.5 L 73.8 31.65 L 77.45 30.6 Q 77.5 28.9 77.55 27.725 Q 77.6 26.55 77.625 25.375 Q 77.65 24.2 77.6 22.6 A 14.386 14.386 0 0 0 77.493 21.02 Q 77.287 19.404 76.691 18.432 A 3.641 3.641 0 0 0 76.5 18.15 A 4.616 4.616 0 0 0 74.597 16.68 A 6.533 6.533 0 0 0 73.4 16.3 Q 71.2 17.75 70.2 19.85 Q 69.248 21.85 69.248 23.669 A 6.895 6.895 0 0 0 69.25 23.85 L 67.4 21.65 A 13.169 13.169 0 0 1 68.333 18.091 A 11.773 11.773 0 0 1 69.125 16.55 A 10.309 10.309 0 0 1 71.981 13.459 A 9.991 9.991 0 0 1 72.65 13.025 Q 74.8 11.75 77.45 11.75 A 6.134 6.134 0 0 1 80.044 12.288 A 6.026 6.026 0 0 1 82.125 13.9 A 8.256 8.256 0 0 1 83.809 17.214 A 11.551 11.551 0 0 1 84.15 19.45 A 13.997 13.997 0 0 1 84.165 19.824 Q 84.191 20.711 84.15 22.275 A 250.952 250.952 0 0 0 84.106 24.281 A 316.919 316.919 0 0 0 84.075 26.45 Q 84.05 28.7 84.05 30.6 Z M 115.2 30.6 L 118.95 31.65 L 118.15 33.5 A 40.025 40.025 0 0 0 116.854 33.423 Q 116.077 33.389 115.2 33.375 Q 113.55 33.35 111.95 33.35 Q 110.129 33.35 108.658 33.394 A 78.503 78.503 0 0 0 108.45 33.4 Q 106.9 33.45 105.6 33.5 L 104.95 31.65 L 108.6 30.6 Q 108.65 28.9 108.7 27.725 Q 108.75 26.55 108.775 25.375 Q 108.8 24.2 108.75 22.6 A 14.386 14.386 0 0 0 108.643 21.02 Q 108.437 19.404 107.841 18.432 A 3.641 3.641 0 0 0 107.65 18.15 A 4.616 4.616 0 0 0 105.747 16.68 A 6.533 6.533 0 0 0 104.55 16.3 Q 102.35 17.75 101.35 19.85 Q 100.398 21.85 100.398 23.669 A 6.895 6.895 0 0 0 100.4 23.85 L 98.55 21.65 A 13.169 13.169 0 0 1 99.483 18.091 A 11.773 11.773 0 0 1 100.275 16.55 A 10.309 10.309 0 0 1 103.131 13.459 A 9.991 9.991 0 0 1 103.8 13.025 Q 105.95 11.75 108.6 11.75 A 6.134 6.134 0 0 1 111.194 12.288 A 6.026 6.026 0 0 1 113.275 13.9 A 8.256 8.256 0 0 1 114.959 17.214 A 11.551 11.551 0 0 1 115.3 19.45 A 13.997 13.997 0 0 1 115.315 19.824 Q 115.341 20.711 115.3 22.275 A 250.952 250.952 0 0 0 115.256 24.281 A 316.919 316.919 0 0 0 115.225 26.45 Q 115.2 28.7 115.2 30.6 Z M 55.75 28.65 L 56.65 30.85 Q 54.85 32.1 53.2 32.925 Q 51.55 33.75 49.7 33.75 A 3.532 3.532 0 0 1 47.191 32.718 A 4.78 4.78 0 0 1 47 32.525 A 3.687 3.687 0 0 1 46.245 31.266 Q 46.035 30.701 45.937 29.998 A 9.76 9.76 0 0 1 45.85 28.65 Q 45.85 26.2 46.075 23.825 A 55.945 55.945 0 0 0 46.229 21.848 Q 46.282 20.943 46.296 20.131 A 32.283 32.283 0 0 0 46.3 19.6 Q 46.3 18.05 45.85 17.1 A 2.421 2.421 0 0 0 44.415 15.823 A 3.176 3.176 0 0 0 44.35 15.8 Q 42.05 15.9 39.95 16.65 A 32.299 32.299 0 0 0 37.015 17.871 A 37.985 37.985 0 0 0 35.65 18.55 L 34.35 16.4 A 32.451 32.451 0 0 1 38.304 13.891 A 27.996 27.996 0 0 1 40.125 13 Q 43.05 11.7 46.25 11.7 Q 48.9 11.7 50.85 13.325 Q 52.8 14.95 52.8 18.25 A 108.774 108.774 0 0 1 52.795 19.281 Q 52.781 20.763 52.725 21.85 A 215.951 215.951 0 0 1 52.659 23.057 Q 52.628 23.609 52.596 24.102 A 124.872 124.872 0 0 1 52.575 24.425 A 34.56 34.56 0 0 0 52.501 26.451 A 37.949 37.949 0 0 0 52.5 26.75 A 17.787 17.787 0 0 0 52.511 27.399 Q 52.532 27.986 52.596 28.374 A 2.768 2.768 0 0 0 52.675 28.725 Q 52.835 29.253 53.521 29.296 A 2.019 2.019 0 0 0 53.65 29.3 Q 54.187 29.3 55.136 28.918 A 13.061 13.061 0 0 0 55.75 28.65 Z M 69.15 18.95 L 69.35 30.6 L 73 31.65 L 72.35 33.5 A 81.93 81.93 0 0 0 70.303 33.405 A 67.676 67.676 0 0 0 69.15 33.375 Q 67.65 33.35 65.85 33.35 A 130.124 130.124 0 0 0 64.461 33.357 Q 63.913 33.363 63.417 33.374 A 70.241 70.241 0 0 0 62.475 33.4 Q 61.05 33.45 59.6 33.5 L 58.8 31.65 L 62.55 30.6 A 49.777 49.777 0 0 1 62.568 29.319 Q 62.597 28.185 62.675 26.825 A 75.887 75.887 0 0 0 62.788 23.941 A 64.197 64.197 0 0 0 62.8 22.7 A 148.315 148.315 0 0 0 62.798 22.005 Q 62.794 21.039 62.776 20.323 A 51.622 51.622 0 0 0 62.775 20.275 Q 62.75 19.3 62.65 18.225 Q 62.561 17.264 62.391 15.762 A 256.766 256.766 0 0 0 62.35 15.4 L 58.45 14.45 L 57.85 12.55 A 111.418 111.418 0 0 0 61.411 12.314 A 94.04 94.04 0 0 0 63.425 12.125 Q 66.05 11.85 69.3 11.5 L 69.3 14.175 Q 69.3 15.2 69.275 16.225 A 45.509 45.509 0 0 1 69.258 16.78 Q 69.235 17.395 69.193 18.19 A 142.534 142.534 0 0 1 69.15 18.95 Z M 100.3 18.95 L 100.5 30.6 L 104.15 31.65 L 103.5 33.5 A 81.93 81.93 0 0 0 101.453 33.405 A 67.676 67.676 0 0 0 100.3 33.375 Q 98.8 33.35 97 33.35 A 130.124 130.124 0 0 0 95.611 33.357 Q 95.063 33.363 94.567 33.374 A 70.241 70.241 0 0 0 93.625 33.4 Q 92.2 33.45 90.75 33.5 L 89.95 31.65 L 93.7 30.6 A 49.777 49.777 0 0 1 93.718 29.319 Q 93.747 28.185 93.825 26.825 A 75.887 75.887 0 0 0 93.938 23.941 A 64.197 64.197 0 0 0 93.95 22.7 A 148.315 148.315 0 0 0 93.948 22.005 Q 93.944 21.039 93.926 20.323 A 51.622 51.622 0 0 0 93.925 20.275 Q 93.9 19.3 93.8 18.225 Q 93.711 17.264 93.541 15.762 A 256.766 256.766 0 0 0 93.5 15.4 L 89.6 14.45 L 89 12.55 A 111.418 111.418 0 0 0 92.561 12.314 A 94.04 94.04 0 0 0 94.575 12.125 Q 97.2 11.85 100.45 11.5 L 100.45 14.175 Q 100.45 15.2 100.425 16.225 A 45.509 45.509 0 0 1 100.408 16.78 Q 100.385 17.395 100.343 18.19 A 142.534 142.534 0 0 1 100.3 18.95 Z M 146.4 18.7 A 24.046 24.046 0 0 0 145.676 12.756 A 18.875 18.875 0 0 0 145.675 12.75 A 21.259 21.259 0 0 0 144.611 9.586 A 17.462 17.462 0 0 0 143.65 7.675 A 12.394 12.394 0 0 0 142.121 5.572 A 10.023 10.023 0 0 0 140.525 4.15 Q 138.7 2.85 136.45 2.85 Q 133.65 2.85 131.875 4.575 A 9.466 9.466 0 0 0 129.888 7.422 A 12.252 12.252 0 0 0 129.275 9.05 A 19.733 19.733 0 0 0 128.508 13.332 A 23.508 23.508 0 0 0 128.45 15 Q 128.45 18.1 129.175 21 A 20.943 20.943 0 0 0 130.325 24.391 A 17.709 17.709 0 0 0 131.25 26.2 A 13.164 13.164 0 0 0 132.725 28.256 A 10.31 10.31 0 0 0 134.45 29.825 Q 136.3 31.15 138.5 31.15 A 7.413 7.413 0 0 0 140.553 30.88 A 5.619 5.619 0 0 0 143.075 29.375 A 9.572 9.572 0 0 0 144.861 26.756 A 12.848 12.848 0 0 0 145.6 24.75 A 21.87 21.87 0 0 0 146.38 19.692 A 24.966 24.966 0 0 0 146.4 18.7 Z M 14.65 0.5 L 15.4 2.45 L 12.1 3.25 Q 12.813 4.818 13.819 7.221 A 268.484 268.484 0 0 1 13.925 7.475 A 98.323 98.323 0 0 0 15.094 10.156 A 128.258 128.258 0 0 0 16.45 13.05 A 106.894 106.894 0 0 0 19.217 18.377 A 118.03 118.03 0 0 0 19.65 19.15 L 13.6 23.6 A 431.29 431.29 0 0 0 12.456 21.075 A 517.081 517.081 0 0 0 11.225 18.4 Q 9.95 15.65 8.675 12.875 A 148.641 148.641 0 0 0 6.934 9.213 A 126.912 126.912 0 0 0 6.15 7.65 A 137.264 137.264 0 0 0 5.095 5.621 Q 4.604 4.698 4.149 3.882 A 78.692 78.692 0 0 0 3.85 3.35 L 0 2.45 L 0.65 0.5 Q 2.2 0.55 3.7 0.6 A 83.772 83.772 0 0 0 5.099 0.634 Q 6.053 0.65 7.15 0.65 Q 9.8 0.65 11.55 0.6 Q 13.054 0.557 14.262 0.514 A 262.221 262.221 0 0 0 14.65 0.5 Z M 30.8 0.5 L 31.55 2.45 L 27.55 3.5 A 45.323 45.323 0 0 0 26.802 4.813 Q 26.476 5.406 26.126 6.078 A 92.505 92.505 0 0 0 25.4 7.5 Q 24.2 9.9 22.9 12.65 Q 21.6 15.4 20.4 18.15 Q 19.2 20.9 18.3 23.25 L 16.3 19.55 Q 17.2 17.9 18.15 15.775 Q 19.1 13.65 19.975 11.375 Q 20.85 9.1 21.575 7.025 A 211.922 211.922 0 0 0 22.087 5.543 Q 22.287 4.956 22.466 4.42 A 117.414 117.414 0 0 0 22.8 3.4 L 18.65 2.45 L 19.35 0.5 Q 20.9 0.55 22.2 0.6 A 62.864 62.864 0 0 0 23.414 0.634 Q 24.244 0.65 25.2 0.65 A 98.588 98.588 0 0 0 26.611 0.641 Q 27.254 0.631 27.826 0.613 A 55.216 55.216 0 0 0 28.2 0.6 L 30.8 0.5 Z M 49.8 19.55 L 46.8 23.7 Q 45.7 23.95 44.85 24.2 A 25.225 25.225 0 0 1 44.039 24.425 A 18.33 18.33 0 0 1 43.3 24.6 A 12.588 12.588 0 0 0 42.516 24.786 Q 41.748 24.996 41.28 25.256 A 2.311 2.311 0 0 0 40.95 25.475 Q 40.461 25.87 40.34 26.704 A 4.158 4.158 0 0 0 40.3 27.3 Q 40.3 28.35 40.85 28.95 A 1.813 1.813 0 0 0 41.927 29.517 A 2.611 2.611 0 0 0 42.35 29.55 Q 43.391 29.55 44.945 28.669 A 13.408 13.408 0 0 0 45.275 28.475 Q 47.05 27.4 48.3 25.75 L 49.25 27.8 A 17.464 17.464 0 0 1 48.684 28.469 Q 47.989 29.253 46.975 30.25 A 15.002 15.002 0 0 1 44.675 32.09 A 18.194 18.194 0 0 1 43.45 32.825 Q 41.4 33.95 38.95 33.95 A 4.721 4.721 0 0 1 36.82 33.433 A 5.688 5.688 0 0 1 36.525 33.275 A 4.989 4.989 0 0 1 35.056 31.974 A 6.407 6.407 0 0 1 34.575 31.25 Q 33.858 30.001 33.804 28.194 A 9.956 9.956 0 0 1 33.8 27.9 A 5.556 5.556 0 0 1 33.958 26.538 A 3.804 3.804 0 0 1 35.075 24.625 A 6.947 6.947 0 0 1 36.474 23.639 Q 37.381 23.146 38.55 22.8 A 37.791 37.791 0 0 1 41.167 22.132 A 47.921 47.921 0 0 1 43.4 21.7 A 27.865 27.865 0 0 0 45.552 21.257 A 23.331 23.331 0 0 0 46.75 20.925 A 13.511 13.511 0 0 0 49.33 19.821 A 15.327 15.327 0 0 0 49.8 19.55 Z M 12.55 19.75 L 19.65 18.65 A 988.702 988.702 0 0 0 19.616 20.543 Q 19.591 22.041 19.575 23.275 A 101.655 101.655 0 0 0 19.567 24.561 Q 19.567 25.817 19.6 26.95 Q 19.65 28.65 19.7 30.55 L 24.75 31.6 L 24.1 33.5 Q 23.216 33.432 22.033 33.399 A 77.399 77.399 0 0 0 20.85 33.375 A 242.114 242.114 0 0 0 19.813 33.364 Q 18.272 33.351 16.241 33.35 A 678.825 678.825 0 0 0 15.95 33.35 Q 13.615 33.35 12.1 33.38 A 78.198 78.198 0 0 0 11.25 33.4 Q 9.6 33.45 8.1 33.5 L 7.45 31.6 L 12.55 30.55 A 120.674 120.674 0 0 0 12.627 28.81 Q 12.662 27.874 12.675 27.05 Q 12.7 25.5 12.675 23.8 A 108.669 108.669 0 0 0 12.646 22.434 Q 12.613 21.219 12.55 19.75 Z" vector-effect="non-scaling-stroke"/></g></svg>