<svg width="206.836" height="58.594" viewBox="0 0 206.836 58.594" xmlns="http://www.w3.org/2000/svg"><g id="svgGroup" stroke-linecap="round" fill-rule="nonzero" font-size="9pt" stroke="#0cd3ff" stroke-width="0.9mm" fill="#3984f4" style="stroke:#0cd3ff;stroke-width:0.9mm;fill:#3984f4"><path d="M 7.227 20.41 L 0.391 8.105 A 1.636 1.636 0 0 1 0.107 7.551 Q 0 7.198 0 6.738 A 3.245 3.245 0 0 1 0.43 5.149 Q 0.725 4.617 1.221 4.102 A 4.471 4.471 0 0 1 2.258 3.286 A 3.522 3.522 0 0 1 4.004 2.832 A 1.857 1.857 0 0 1 4.915 3.095 Q 5.57 3.462 6.272 4.344 A 10.777 10.777 0 0 1 6.738 4.98 A 39.037 39.037 0 0 1 7.792 6.619 Q 8.841 8.337 10.059 10.645 Q 11.899 14.132 14.221 18.437 A 1332.723 1332.723 0 0 0 14.258 18.506 A 80.831 80.831 0 0 0 18.213 25.052 A 92.382 92.382 0 0 0 19.727 27.246 A 144.283 144.283 0 0 0 22.51 22.659 A 162.856 162.856 0 0 0 23.438 21.045 A 159.099 159.099 0 0 0 26.803 14.798 A 146.39 146.39 0 0 0 26.904 14.6 A 211.504 211.504 0 0 0 28.804 10.766 A 173.7 173.7 0 0 0 29.834 8.594 Q 31.152 5.762 32.031 3.809 A 5.299 5.299 0 0 1 32.853 2.985 Q 33.789 2.246 34.863 2.246 Q 36.523 2.246 37.793 3.418 Q 39.046 4.574 39.062 5.635 A 1.821 1.821 0 0 1 39.063 5.664 A 2.098 2.098 0 0 1 39.02 6.049 Q 38.879 6.783 38.281 8.203 A 62.594 62.594 0 0 1 37.634 9.684 Q 37.338 10.338 36.999 11.054 A 116.986 116.986 0 0 1 36.279 12.549 Q 35.059 15.039 33.447 18.018 A 272.634 272.634 0 0 1 30.127 23.975 A 275.507 275.507 0 0 1 27.591 28.305 A 247.533 247.533 0 0 1 26.758 29.688 Q 25.616 31.567 24.66 33.124 A 487.732 487.732 0 0 1 23.828 34.473 A 241.61 241.61 0 0 1 23.781 39.347 Q 23.736 41.576 23.648 43.57 A 139.587 139.587 0 0 1 23.584 44.873 A 178.414 178.414 0 0 0 23.401 49.231 A 136.786 136.786 0 0 0 23.34 53.223 A 17.459 17.459 0 0 0 23.376 54.362 A 15.693 15.693 0 0 0 23.389 54.541 Q 23.438 55.176 23.438 55.762 A 2.868 2.868 0 0 1 23.305 56.658 A 2.221 2.221 0 0 1 22.266 57.91 A 4.953 4.953 0 0 1 20.647 58.52 A 4.603 4.603 0 0 1 19.824 58.594 A 5.084 5.084 0 0 1 17.92 58.24 A 4.841 4.841 0 0 1 17.334 57.959 A 2.197 2.197 0 0 1 16.576 57.278 Q 16.211 56.737 16.211 55.957 A 188.084 188.084 0 0 1 16.223 53.845 A 222.697 222.697 0 0 1 16.26 51.611 A 209.528 209.528 0 0 0 16.296 49.231 A 257.911 257.911 0 0 0 16.309 46.68 A 317.508 317.508 0 0 0 16.296 43.945 A 390.603 390.603 0 0 0 16.26 41.016 A 363.889 363.889 0 0 1 16.223 37.866 A 455.197 455.197 0 0 1 16.211 34.473 A 48.266 48.266 0 0 1 14.684 32.449 Q 14.022 31.526 13.318 30.47 A 98.152 98.152 0 0 1 11.865 28.223 A 182.929 182.929 0 0 1 7.227 20.41 Z M 90.625 24.512 A 2.93 2.93 0 0 1 91.41 22.516 A 4.44 4.44 0 0 1 91.992 21.973 A 5.5 5.5 0 0 1 93.141 21.267 A 4.085 4.085 0 0 1 94.824 20.898 A 3.02 3.02 0 0 1 96.375 21.334 A 3.846 3.846 0 0 1 96.68 21.533 Q 97.559 22.168 98.193 23.047 A 15.452 15.452 0 0 1 99.229 24.697 A 17.115 17.115 0 0 1 99.365 24.951 Q 99.735 25.656 100.035 26.246 A 81.026 81.026 0 0 1 100.293 26.758 A 24.549 24.549 0 0 1 102.04 26.193 Q 102.963 25.929 104.018 25.692 A 45.211 45.211 0 0 1 104.736 25.537 Q 107.324 25 110.254 25 Q 111.523 25 113.379 25.146 A 10.641 10.641 0 0 1 116.702 25.973 A 12.119 12.119 0 0 1 117.041 26.123 A 8.704 8.704 0 0 1 119.172 27.531 A 11.458 11.458 0 0 1 120.361 28.76 Q 121.524 30.147 122.254 32.428 A 19.202 19.202 0 0 1 122.656 33.887 A 15.911 15.911 0 0 1 122.901 35.315 Q 123.065 36.597 123.096 38.184 A 311.797 311.797 0 0 0 123.196 42.102 A 348.364 348.364 0 0 0 123.242 43.457 Q 123.145 45.801 123.145 48.193 A 28.82 28.82 0 0 1 123.064 50.397 Q 122.98 51.491 122.808 52.46 A 17.633 17.633 0 0 1 122.803 52.49 Q 122.461 54.395 121.68 55.566 Q 120.898 56.738 119.336 56.738 A 4.657 4.657 0 0 1 117.944 56.539 A 3.839 3.839 0 0 1 116.553 55.762 A 3.168 3.168 0 0 1 115.437 53.463 A 4.165 4.165 0 0 1 115.43 53.223 Q 115.43 50.789 115.646 47.778 A 109.555 109.555 0 0 1 115.723 46.777 Q 116.016 43.164 116.016 40.234 A 25.989 25.989 0 0 0 115.964 38.537 Q 115.911 37.735 115.805 37.051 A 10.889 10.889 0 0 0 115.576 35.938 A 9.358 9.358 0 0 0 115.216 34.839 Q 114.997 34.294 114.725 33.86 A 4.489 4.489 0 0 0 114.355 33.35 A 3.636 3.636 0 0 0 112.5 32.179 A 4.527 4.527 0 0 0 112.305 32.129 A 11.174 11.174 0 0 0 110.806 31.894 A 14.708 14.708 0 0 0 109.473 31.836 A 13.409 13.409 0 0 0 106.317 32.222 A 14.941 14.941 0 0 0 106.104 32.275 Q 104.395 32.715 102.734 33.203 A 138.217 138.217 0 0 1 102.881 37.012 A 153.021 153.021 0 0 1 102.917 39.014 A 176.453 176.453 0 0 1 102.93 41.113 L 102.93 47.412 Q 102.93 50.293 102.588 52.393 A 9.679 9.679 0 0 1 102.251 53.816 Q 102.013 54.554 101.664 55.14 A 5.01 5.01 0 0 1 101.27 55.713 A 3.161 3.161 0 0 1 99.31 56.857 A 4.757 4.757 0 0 1 98.438 56.934 A 4.904 4.904 0 0 1 97.303 56.638 A 3.767 3.767 0 0 1 96.191 55.957 A 2.573 2.573 0 0 1 95.318 54.102 A 3.509 3.509 0 0 1 95.313 53.906 A 98.107 98.107 0 0 1 95.42 49.396 A 113.398 113.398 0 0 1 95.508 47.754 A 103.523 103.523 0 0 0 95.654 44.409 A 127.558 127.558 0 0 0 95.703 40.82 A 121.083 121.083 0 0 0 95.692 39.167 Q 95.682 38.389 95.661 37.696 A 71.385 71.385 0 0 0 95.654 37.5 A 75.661 75.661 0 0 0 95.531 35.011 A 68.39 68.39 0 0 0 95.508 34.668 A 19.822 19.822 0 0 1 94.26 32.421 A 24.247 24.247 0 0 1 93.604 30.908 Q 92.773 28.809 91.406 26.465 Q 90.894 25.76 90.717 25.139 A 2.294 2.294 0 0 1 90.625 24.512 Z M 196.829 3.68 Q 196.794 3.544 196.783 3.336 A 3.929 3.929 0 0 1 196.777 3.125 A 2.689 2.689 0 0 1 197.666 1.079 A 3.539 3.539 0 0 1 197.9 0.879 Q 199.023 0 200.391 0 Q 201.563 0 202.637 0.635 A 2.541 2.541 0 0 1 203.844 2.306 A 3.619 3.619 0 0 1 203.906 2.637 Q 205.078 9.375 205.957 17.432 A 147.646 147.646 0 0 1 206.781 29.16 A 129.455 129.455 0 0 1 206.836 32.91 A 108.625 108.625 0 0 1 206.592 40.234 A 49.451 49.451 0 0 1 206.115 44.56 A 41.054 41.054 0 0 1 205.664 46.973 Q 204.883 50.098 203.418 52.295 A 14.704 14.704 0 0 1 201.524 54.612 A 12.34 12.34 0 0 1 200.049 55.859 Q 198.145 57.227 195.947 57.861 Q 193.75 58.496 191.602 58.496 A 15.331 15.331 0 0 1 188.458 58.158 A 18.716 18.716 0 0 1 186.914 57.764 A 15.197 15.197 0 0 1 182.471 55.615 A 12.957 12.957 0 0 1 179.79 53.105 A 11.938 11.938 0 0 1 179.199 52.295 Q 177.93 50.391 177.93 48.047 A 3.655 3.655 0 0 1 178.172 46.694 A 3.319 3.319 0 0 1 179.15 45.361 A 4.755 4.755 0 0 1 180.186 44.688 A 3.616 3.616 0 0 1 181.738 44.336 A 3.182 3.182 0 0 1 183.04 44.591 Q 184.018 45.024 184.57 46.191 A 11.469 11.469 0 0 0 185.395 47.892 Q 185.953 48.823 186.64 49.487 A 6.02 6.02 0 0 0 187.451 50.146 A 6.918 6.918 0 0 0 191.406 51.367 Q 194.141 51.367 195.752 50 A 7.59 7.59 0 0 0 197.461 47.89 A 10.27 10.27 0 0 0 198.193 46.24 A 17.902 17.902 0 0 0 198.808 43.969 Q 199.05 42.789 199.187 41.443 A 32.124 32.124 0 0 0 199.268 40.527 A 90.383 90.383 0 0 0 199.477 36.186 A 110.476 110.476 0 0 0 199.512 33.398 A 124.446 124.446 0 0 0 199.347 27.081 A 138.464 138.464 0 0 0 199.219 24.902 A 284.265 284.265 0 0 0 198.901 20.618 A 243.689 243.689 0 0 0 198.535 16.553 Q 198.145 12.598 197.705 9.229 Q 197.266 5.859 196.875 3.809 A 0.654 0.654 0 0 1 196.829 3.68 Z M 150.272 6.729 A 2.72 2.72 0 0 1 151.66 6.348 A 13.4 13.4 0 0 1 155.643 6.977 A 17.564 17.564 0 0 1 158.105 7.959 A 19.628 19.628 0 0 1 163.43 11.788 A 22.677 22.677 0 0 1 164.111 12.5 A 22.385 22.385 0 0 1 167.204 16.854 A 28.214 28.214 0 0 1 168.555 19.678 A 23.057 23.057 0 0 1 170.123 25.849 A 28.864 28.864 0 0 1 170.313 29.199 A 32.243 32.243 0 0 1 169.475 36.628 A 29.485 29.485 0 0 1 169.092 38.086 A 21.97 21.97 0 0 1 166.238 44.265 A 20.51 20.51 0 0 1 165.332 45.508 Q 162.793 48.73 158.936 50.586 Q 155.219 52.373 150.098 52.439 A 30.619 30.619 0 0 1 149.707 52.441 A 14.864 14.864 0 0 1 142.725 50.732 A 19.166 19.166 0 0 1 136.963 46.094 A 21.08 21.08 0 0 1 133.728 40.86 A 25.059 25.059 0 0 1 133.057 39.16 A 25.143 25.143 0 0 1 131.669 31.846 A 28.985 28.985 0 0 1 131.641 30.566 A 27.538 27.538 0 0 1 132.319 24.355 A 23.574 23.574 0 0 1 133.398 20.898 A 34.323 34.323 0 0 1 135.473 16.574 A 26.964 26.964 0 0 1 137.646 13.33 Q 140.03 10.292 142.593 8.551 A 16.149 16.149 0 0 1 142.822 8.398 A 15.408 15.408 0 0 1 144.352 7.51 Q 145.996 6.686 147.315 6.643 A 4.433 4.433 0 0 1 147.461 6.641 Q 148.349 6.641 149.317 7.206 A 5.895 5.895 0 0 1 149.512 7.324 A 3.736 3.736 0 0 1 150.272 6.729 Z M 149.902 12.988 L 149.805 12.988 A 17.195 17.195 0 0 0 142.418 19.488 A 20.73 20.73 0 0 0 142.236 19.775 Q 139.519 24.151 139.365 30.57 A 32.454 32.454 0 0 0 139.355 31.348 A 23.473 23.473 0 0 0 139.659 35.256 Q 140.015 37.36 140.789 39.028 A 10.524 10.524 0 0 0 142.627 41.797 A 11.648 11.648 0 0 0 145.587 44.137 A 9.709 9.709 0 0 0 150.293 45.313 A 12.232 12.232 0 0 0 153.137 44.995 A 9.779 9.779 0 0 0 155.615 44.043 A 11.757 11.757 0 0 0 159.473 40.625 A 15.737 15.737 0 0 0 161.528 36.715 A 18.397 18.397 0 0 0 161.865 35.693 A 20.222 20.222 0 0 0 162.695 29.883 A 26.448 26.448 0 0 0 162.488 26.481 Q 162.213 24.362 161.572 22.607 A 18.855 18.855 0 0 0 160.391 19.98 A 13.726 13.726 0 0 0 158.691 17.529 Q 156.934 15.527 154.688 14.404 A 19.816 19.816 0 0 0 151.389 13.097 A 17.475 17.475 0 0 0 150.195 12.793 A 1.717 1.717 0 0 1 150.116 12.868 Q 149.979 12.988 149.902 12.988 Z M 72.266 39.551 L 72.266 40.039 A 24.224 24.224 0 0 0 72.702 41.348 Q 72.947 42.012 73.203 42.562 A 9.73 9.73 0 0 0 73.73 43.555 A 8.668 8.668 0 0 0 74.389 44.489 Q 74.889 45.102 75.439 45.508 A 5.159 5.159 0 0 0 76.251 46.003 A 3.73 3.73 0 0 0 77.295 46.338 A 12.193 12.193 0 0 0 79.199 46.484 A 4.589 4.589 0 0 0 80.159 46.377 Q 80.586 46.286 81.043 46.117 A 7.614 7.614 0 0 0 81.104 46.094 Q 82.099 45.715 83.416 45.703 A 9.467 9.467 0 0 1 83.496 45.703 A 2.554 2.554 0 0 1 85.423 46.531 A 3.328 3.328 0 0 1 85.596 46.729 Q 86.426 47.754 86.426 48.926 Q 86.426 50 85.791 50.83 Q 85.156 51.66 84.131 52.197 Q 83.105 52.734 81.885 52.979 A 12.266 12.266 0 0 1 79.676 53.221 A 11.307 11.307 0 0 1 79.492 53.223 A 14.839 14.839 0 0 1 76.228 52.879 A 11.429 11.429 0 0 1 73.047 51.66 A 16.705 16.705 0 0 1 70.758 50.102 A 12.256 12.256 0 0 1 68.75 48.047 Q 66.797 50.293 64.063 51.563 A 13.522 13.522 0 0 1 58.301 52.832 A 17.783 17.783 0 0 1 52.832 51.953 A 14.77 14.77 0 0 1 47.949 49.316 Q 45.801 47.559 44.434 44.971 A 11.573 11.573 0 0 1 43.275 41.472 A 15.594 15.594 0 0 1 43.066 38.867 A 12.852 12.852 0 0 1 43.374 36.125 A 16.053 16.053 0 0 1 43.799 34.57 A 15.673 15.673 0 0 1 45.772 30.595 A 17.686 17.686 0 0 1 45.996 30.273 A 16.304 16.304 0 0 1 49.561 26.66 A 11.925 11.925 0 0 1 53.372 24.79 A 14.367 14.367 0 0 1 54.492 24.512 L 55.078 24.512 A 16.08 16.08 0 0 1 55.536 24.518 Q 56.177 24.536 56.543 24.609 A 1.931 1.931 0 0 1 57.212 24.255 Q 57.494 24.167 57.832 24.137 A 4.182 4.182 0 0 1 58.203 24.121 Q 61.523 24.414 64.16 25.928 A 16.276 16.276 0 0 1 67.897 28.839 A 15.082 15.082 0 0 1 68.604 29.639 A 15.837 15.837 0 0 1 71.338 34.473 Q 72.266 37.109 72.266 39.551 Z M 53.17 32.789 A 6.924 6.924 0 0 0 52.148 33.838 Q 50.586 35.84 50.586 38.477 A 10.105 10.105 0 0 0 50.917 41.118 A 8.028 8.028 0 0 0 52.197 43.799 Q 53.795 45.978 58.131 45.996 A 17.434 17.434 0 0 0 58.203 45.996 A 6.299 6.299 0 0 0 62.565 44.262 A 8.171 8.171 0 0 0 62.695 44.141 A 6.163 6.163 0 0 0 64.548 40.511 A 8.763 8.763 0 0 0 64.648 39.16 A 11.997 11.997 0 0 0 64.56 37.655 Q 64.463 36.895 64.262 36.254 A 6.007 6.007 0 0 0 64.014 35.596 A 7.489 7.489 0 0 0 63.136 34.104 A 6.326 6.326 0 0 0 62.354 33.252 A 7.703 7.703 0 0 0 60.131 31.856 A 8.736 8.736 0 0 0 59.961 31.787 Q 58.594 31.25 57.129 30.762 Q 54.668 31.535 53.17 32.789 Z" vector-effect="non-scaling-stroke"/></g></svg>